<?xml version="1.0" encoding="utf-8"?>
<!-- Generator: Adobe Illustrator 27.1.1, SVG Export Plug-In . SVG Version: 6.00 Build 0)  -->
<svg version="1.1" id="Layer_1" xmlns="http://www.w3.org/2000/svg" xmlns:xlink="http://www.w3.org/1999/xlink" x="0px" y="0px"
	 viewBox="0 0 348.4 136.3" style="enable-background:new 0 0 348.4 136.3;" xml:space="preserve">
<style type="text/css">
	.st0{fill:#F7F9FB;}
</style>
<g>
	<g>
		<path class="st0" d="M45.1,136.1l17.8-20c0.3-0.3,0.1-0.8-0.4-0.8H42.9c-0.1,0-0.3-0.1-0.4-0.2L25.9,96.5
			c-0.1-0.2-0.2-0.4-0.1-0.6l27.8-47.7c0.1-0.2,0.1-0.4,0-0.5L42.1,27.9c-0.2-0.3-0.7-0.3-0.9,0L0.1,98.5c-0.1,0.2-0.1,0.4,0,0.6
			l33,37.1c0.1,0.1,0.2,0.2,0.4,0.2h11.2C44.8,136.3,45,136.2,45.1,136.1z"/>
		<path class="st0" d="M57.3,0.3L45.7,20.1c-0.1,0.2-0.1,0.4,0,0.5l12,20.6l0,0l31.8,54.6c0.1,0.2,0.1,0.4-0.1,0.6l-16.8,18.8l0,0
			l-17.9,20.2c-0.3,0.3-0.1,0.8,0.4,0.8h26.8c0.1,0,0.3-0.1,0.4-0.2l33-37.1c0.1-0.2,0.2-0.4,0.1-0.6l-57.3-98
			C58-0.1,57.5-0.1,57.3,0.3z"/>
	</g>
	<path class="st0" d="M164.8,108.5V44.9c0-0.5-0.6-0.7-0.9-0.3l-19.4,21.7c-0.1,0.1-0.1,0.2-0.1,0.3V129c0,0.3,0.2,0.5,0.5,0.5h19.9
		h29.1c0.3,0,0.5-0.2,0.5-0.5v-19.5c0-0.3-0.2-0.5-0.5-0.5h-28.6C165.1,109,164.8,108.8,164.8,108.5z"/>
	<path class="st0" d="M222.6,129V69.4c0-0.5-0.6-0.7-0.9-0.3l-19.4,21.7c-0.1,0.1-0.1,0.2-0.1,0.3V129c0,0.3,0.2,0.5,0.5,0.5h19.4
		C222.4,129.5,222.6,129.2,222.6,129z"/>
	<path class="st0" d="M327.6,99.1c-0.1-0.2-0.1-0.4,0-0.6l19.9-29.6c0.2-0.3,0-0.8-0.4-0.8h-22.3c-0.2,0-0.3,0.1-0.4,0.2l-14.7,23.8
		c-0.3,0.4-0.9,0.2-0.9-0.3v-47c0-0.5-0.6-0.7-0.9-0.3l-19.4,21.7c-0.1,0.1-0.1,0.2-0.1,0.3V129c0,0.3,0.2,0.5,0.5,0.5h19.4
		c0.3,0,0.5-0.2,0.5-0.5v-20v-3.9c0-0.5,0.6-0.7,0.9-0.3l16.3,24.5c0.1,0.1,0.3,0.2,0.4,0.2H348c0.4,0,0.6-0.5,0.4-0.8L327.6,99.1z"
		/>
	<path class="st0" d="M255.5,130.7c12.6,0,26-5.3,26-20.1S269.1,93,260,90.9c-5-1.2-9-2.1-9-4.8c0-2.1,1.9-3.4,5-3.4
		c3.2,0,5.8,1.6,7.6,4.7c0.1,0.2,0.4,0.3,0.6,0.2l15.4-6.9c0.3-0.1,0.4-0.4,0.2-0.7c-4.7-8.6-12.9-13-24.3-13c-16.5-0.1-24,10-24,20
		c0,13.7,12.2,16.8,21.1,19.1c5.2,1.3,8.9,2.3,8.9,4.9c0,1.7-1,3.8-6,3.8c-4.6,0-7.9-2-9.6-6c-0.1-0.3-0.4-0.4-0.7-0.3l-15.9,8
		c-0.3,0.1-0.4,0.4-0.2,0.7C233.6,126.3,242.3,130.7,255.5,130.7z"/>
</g>
</svg>
